<svg aria-hidden="true" style="position: absolute; width: 0; height: 0; overflow: hidden;" version="1.1" xmlns="http://www.w3.org/2000/svg" xmlns:xlink="http://www.w3.org/1999/xlink">
<defs>
<symbol id="icon-Clock" viewBox="0 0 32 32">
<path d="M16 28.8c3.395 0 6.651-1.349 9.051-3.749s3.749-5.656 3.749-9.051c0-3.395-1.349-6.651-3.749-9.051s-5.656-3.749-9.051-3.749c-3.395 0-6.651 1.349-9.051 3.749s-3.749 5.656-3.749 9.051c0 3.395 1.349 6.651 3.749 9.051s5.656 3.749 9.051 3.749zM17.6 9.6c0-0.424-0.169-0.831-0.469-1.131s-0.707-0.469-1.131-0.469c-0.424 0-0.831 0.169-1.131 0.469s-0.469 0.707-0.469 1.131v6.4c0 0.424 0.169 0.831 0.469 1.131l4.525 4.526c0.149 0.149 0.325 0.267 0.519 0.347s0.402 0.122 0.613 0.122c0.21 0 0.418-0.041 0.613-0.122s0.371-0.198 0.519-0.347c0.149-0.149 0.267-0.325 0.347-0.519s0.122-0.402 0.122-0.613c0-0.21-0.041-0.418-0.122-0.613s-0.198-0.371-0.347-0.519l-4.058-4.056v-5.738z"></path>
</symbol>
<symbol id="icon-emojione-star" viewBox="0 0 32 32">
<path fill="#ffce31" style="fill: var(--color1, #ffce31)" d="M31 12.6h-11.45l-3.55-11.1-3.55 11.1h-11.45l9.25 6.85-3.5 11.050 9.25-6.85 9.25 6.85-3.55-11.1 9.3-6.8z"></path>
</symbol>
<symbol id="icon-Facebook" viewBox="0 0 32 32">
<path fill="#fff" style="fill: var(--color2, #fff)" d="M0 16.089c0 7.955 5.777 14.569 13.333 15.911v-11.556h-4v-4.444h4v-3.556c0-4 2.577-6.221 6.223-6.221 1.155 0 2.4 0.177 3.555 0.355v4.089h-2.044c-1.956 0-2.4 0.977-2.4 2.223v3.111h4.267l-0.711 4.444h-3.556v11.556c7.556-1.341 13.333-7.955 13.333-15.911 0-8.849-7.2-16.089-16-16.089s-16 7.24-16 16.089z"></path>
</symbol>
<symbol id="icon-Instagram" viewBox="0 0 32 32">
<path fill="#fff" style="fill: var(--color2, #fff)" d="M9.404 0.096c1.706-0.079 2.25-0.096 6.596-0.096s4.89 0.019 6.595 0.096c1.705 0.077 2.868 0.349 3.887 0.743 1.066 0.403 2.033 1.033 2.833 1.847 0.815 0.799 1.443 1.764 1.844 2.832 0.396 1.018 0.666 2.182 0.745 3.884 0.079 1.709 0.096 2.253 0.096 6.598 0 4.346-0.019 4.89-0.096 6.596-0.077 1.702-0.349 2.865-0.745 3.884-0.401 1.068-1.031 2.035-1.844 2.835-0.8 0.815-1.767 1.443-2.833 1.844-1.018 0.396-2.182 0.666-3.884 0.745-1.708 0.079-2.252 0.096-6.598 0.096s-4.89-0.019-6.596-0.096c-1.702-0.077-2.865-0.349-3.884-0.745-1.068-0.402-2.035-1.031-2.835-1.844-0.814-0.799-1.444-1.766-1.846-2.833-0.394-1.018-0.665-2.182-0.743-3.884-0.079-1.709-0.096-2.253-0.096-6.598 0-4.346 0.019-4.89 0.096-6.595s0.349-2.868 0.743-3.887c0.403-1.068 1.033-2.034 1.847-2.833 0.799-0.814 1.765-1.444 2.832-1.846 1.018-0.394 2.182-0.665 3.884-0.743h0.001zM22.465 2.976c-1.687-0.077-2.193-0.093-6.465-0.093s-4.778 0.016-6.465 0.093c-1.561 0.071-2.407 0.332-2.972 0.551-0.746 0.291-1.28 0.636-1.84 1.196-0.531 0.516-0.939 1.145-1.196 1.84-0.22 0.564-0.48 1.411-0.551 2.972-0.077 1.687-0.093 2.193-0.093 6.465s0.016 4.778 0.093 6.465c0.071 1.561 0.332 2.407 0.551 2.972 0.256 0.694 0.665 1.324 1.196 1.84 0.516 0.531 1.146 0.94 1.84 1.196 0.564 0.22 1.411 0.48 2.972 0.551 1.687 0.077 2.192 0.093 6.465 0.093s4.778-0.016 6.465-0.093c1.561-0.071 2.407-0.332 2.972-0.551 0.746-0.291 1.28-0.636 1.84-1.196 0.531-0.516 0.94-1.146 1.196-1.84 0.22-0.564 0.48-1.411 0.551-2.972 0.077-1.687 0.093-2.193 0.093-6.465s-0.016-4.778-0.093-6.465c-0.071-1.561-0.332-2.407-0.551-2.972-0.291-0.746-0.636-1.28-1.196-1.84-0.516-0.531-1.145-0.939-1.84-1.196-0.564-0.22-1.411-0.48-2.972-0.551v0zM13.956 20.932c1.141 0.475 2.412 0.539 3.595 0.181s2.206-1.115 2.893-2.143c0.687-1.028 0.996-2.262 0.873-3.493s-0.668-2.38-1.543-3.253c-0.558-0.558-1.233-0.985-1.976-1.251s-1.536-0.363-2.321-0.286-1.544 0.328-2.221 0.734c-0.677 0.406-1.255 0.957-1.694 1.613s-0.726 1.401-0.842 2.182c-0.116 0.781-0.057 1.577 0.172 2.333s0.622 1.45 1.152 2.035c0.53 0.585 1.183 1.045 1.912 1.347zM10.185 10.185c0.764-0.764 1.67-1.369 2.668-1.783s2.067-0.626 3.147-0.626 2.149 0.213 3.147 0.626c0.998 0.413 1.904 1.019 2.668 1.783s1.369 1.67 1.783 2.668c0.413 0.998 0.626 2.067 0.626 3.147s-0.213 2.149-0.626 3.147c-0.413 0.998-1.019 1.904-1.783 2.668-1.542 1.542-3.634 2.409-5.815 2.409s-4.273-0.866-5.815-2.409c-1.542-1.542-2.409-3.634-2.409-5.815s0.866-4.273 2.409-5.815v0zM26.048 9.001c0.189-0.179 0.341-0.393 0.445-0.631s0.161-0.495 0.165-0.755c0.004-0.26-0.045-0.518-0.142-0.759s-0.243-0.46-0.427-0.644-0.403-0.329-0.644-0.427c-0.241-0.098-0.499-0.146-0.759-0.142s-0.517 0.060-0.755 0.165c-0.238 0.105-0.453 0.256-0.631 0.446-0.347 0.368-0.537 0.857-0.53 1.363s0.212 0.989 0.569 1.347 0.841 0.562 1.347 0.569c0.506 0.007 0.995-0.183 1.363-0.53v0z"></path>
</symbol>
<symbol id="icon-PencilAlt" viewBox="0 0 32 32">
<path fill="#fff" style="fill: var(--color2, #fff)" d="M27.238 4.762c-0.568-0.568-1.339-0.888-2.143-0.888s-1.575 0.319-2.143 0.888l-11.499 11.499v4.287h4.287l11.499-11.499c0.568-0.569 0.888-1.339 0.888-2.143s-0.319-1.575-0.888-2.143z"></path>
<path fill="#fff" style="fill: var(--color2, #fff)" d="M3.874 9.937c0-0.804 0.319-1.575 0.888-2.144s1.34-0.888 2.144-0.888h6.063c0.402 0 0.788 0.16 1.072 0.444s0.444 0.67 0.444 1.072c0 0.402-0.16 0.788-0.444 1.072s-0.67 0.444-1.072 0.444h-6.063v15.158h15.158v-6.063c0-0.402 0.16-0.788 0.444-1.072s0.67-0.444 1.072-0.444c0.402 0 0.788 0.16 1.072 0.444s0.444 0.67 0.444 1.072v6.063c0 0.804-0.319 1.575-0.888 2.144s-1.34 0.888-2.144 0.888h-15.158c-0.804 0-1.575-0.32-2.144-0.888s-0.888-1.34-0.888-2.144v-15.158z"></path>
</symbol>
<symbol id="icon-Close" viewBox="0 0 40 40" fill="none">
<path d="M10 10L30 30M10 30L30 10L10 30Z" stroke="white" stroke-width="3.55754" stroke-linecap="round" stroke-linejoin="round"/>
</symbol>
<symbol id="icon-menu" viewBox="0 0 40 40" fill="none">
<path d="M33.3335 26.6667H6.66683M33.3335 13.3334H6.66683H33.3335Z" stroke="#023047" stroke-width="4.33333" stroke-linecap="round" stroke-linejoin="round"/>
</symbol>
</defs>
</svg>
